<?xml version="1.0" standalone="no"?>
<!DOCTYPE svg PUBLIC "-//W3C//DTD SVG 20010904//EN"
 "http://www.w3.org/TR/2001/REC-SVG-20010904/DTD/svg10.dtd">
<svg version="1.0" xmlns="http://www.w3.org/2000/svg"
 width="100.000000pt" height="100.000000pt" viewBox="0 0 100.000000 100.000000"
 preserveAspectRatio="xMidYMid meet">

<g transform="translate(0.000000,100.000000) scale(0.100000,-0.100000)"
fill="#000000" stroke="none">
<path d="M410 990 c-95 -17 -205 -76 -271 -146 -185 -198 -180 -505 13 -697
l61 -62 12 50 c6 28 15 56 19 63 9 15 86 54 137 71 30 10 35 15 32 35 -3 13 0
27 6 30 6 4 11 13 11 20 0 16 -78 134 -108 164 -27 27 -38 70 -25 91 17 27 38
18 44 -19 l6 -35 2 36 c0 19 8 60 17 90 25 87 23 85 39 62 23 -33 83 -65 165
-89 75 -22 75 -22 81 -60 l6 -39 2 38 c1 34 4 38 24 35 18 -2 23 -10 25 -40 3
-30 -2 -43 -25 -65 -15 -16 -47 -57 -71 -92 -38 -56 -42 -67 -33 -88 6 -13 11
-35 11 -48 0 -14 6 -25 13 -25 21 0 131 -56 149 -76 9 -10 20 -39 25 -64 l9
-45 48 45 c59 54 111 133 136 205 123 359 -185 720 -560 655z"/>
<path d="M372 588 c3 -32 4 -33 53 -33 49 0 50 1 53 33 l3 32 -56 0 -56 0 3
-32z m96 0 c-2 -19 -10 -24 -45 -26 -40 -3 -43 -1 -43 22 0 24 3 26 46 26 41
0 45 -2 42 -22z"/>
<path d="M522 588 c3 -32 4 -33 53 -33 49 0 50 1 53 33 l3 32 -56 0 -56 0 3
-32z m98 -4 c0 -23 -3 -25 -42 -22 -36 2 -44 7 -46 26 -3 20 1 22 42 22 43 0
46 -2 46 -26z"/>
</g>
</svg>
